<svg width="34" height="34" viewBox="0 0 34 34" xmlns="http://www.w3.org/2000/svg">
    <g fill="none" fill-rule="evenodd">
        <circle fill="#FEFC53" cx="17" cy="17" r="17"/>
        <g fill-rule="nonzero">
            <path d="M26.775 22.107c-3.4-1.617-3.942-4.114-3.966-4.3-.03-.224-.062-.4.19-.629.242-.22 1.32-.876 1.62-1.08.494-.34.711-.68.55-1.096-.111-.288-.385-.397-.672-.397-.091 0-.182.01-.27.03-.543.116-1.07.383-1.376.455a.488.488 0 0 1-.112.015c-.163 0-.225-.071-.209-.263.038-.584.119-1.722.025-2.785-.128-1.463-.608-2.188-1.178-2.83-.275-.31-1.554-1.646-4.023-1.646-2.468 0-3.746 1.336-4.02 1.643-.57.64-1.05 1.366-1.178 2.829-.094 1.063-.01 2.201.025 2.785.012.183-.046.263-.208.263a.493.493 0 0 1-.113-.015c-.304-.072-.832-.34-1.375-.455-.088-.02-.179-.03-.27-.03-.288 0-.56.11-.673.397-.16.417.056.756.552 1.095.3.206 1.377.86 1.62 1.081.251.229.219.405.19.63-.024.187-.567 2.685-3.967 4.3-.199.094-.538.295.06.619.938.51 1.562.455 2.047.762.412.26.169.823.468 1.025.368.25 1.456-.017 2.862.439 1.178.381 1.894 1.459 3.983 1.459 2.09 0 2.826-1.083 3.983-1.46 1.403-.455 2.493-.188 2.861-.438.3-.202.057-.765.468-1.025.486-.307 1.11-.253 2.048-.762.596-.32.258-.521.058-.616z" fill="#FFF"/>
            <path d="M28.255 21.917c-.153-.408-.443-.626-.774-.807a1.949 1.949 0 0 0-.169-.087c-.098-.05-.2-.098-.3-.15-1.032-.537-1.837-1.215-2.396-2.019a4.557 4.557 0 0 1-.411-.717c-.048-.133-.046-.21-.011-.279a.458.458 0 0 1 .131-.135c.178-.115.36-.232.485-.31.22-.142.396-.253.508-.332.424-.29.72-.6.905-.946a1.854 1.854 0 0 0 .095-1.564c-.28-.726-.978-1.176-1.823-1.176a2.553 2.553 0 0 0-.668.087c.007-.496-.004-1.02-.049-1.535-.159-1.812-.805-2.762-1.478-3.52a5.873 5.873 0 0 0-1.503-1.188c-1.022-.573-2.18-.864-3.443-.864s-2.416.291-3.438.864A5.852 5.852 0 0 0 12.41 8.43c-.674.757-1.32 1.709-1.479 3.52a15.293 15.293 0 0 0-.048 1.534 2.553 2.553 0 0 0-.668-.087c-.846 0-1.545.45-1.824 1.176a1.856 1.856 0 0 0 .093 1.566c.185.346.482.655.905.946.112.077.288.189.509.33.12.077.294.188.465.3.06.038.11.088.15.147.035.072.036.15-.017.293-.113.245-.249.48-.404.702-.547.785-1.329 1.451-2.328 1.984-.529.276-1.078.46-1.31 1.08-.176.468-.061 1 .384 1.45.163.167.352.308.56.417.434.234.895.415 1.373.54a.915.915 0 0 1 .278.121c.162.14.139.35.355.657.108.16.246.297.406.406.453.308.963.327 1.502.347.488.019 1.04.04 1.672.244.261.085.533.25.847.441.756.456 1.79 1.081 3.522 1.081 1.731 0 2.773-.628 3.534-1.086.313-.188.583-.351.837-.434.631-.205 1.184-.225 1.671-.243.54-.02 1.05-.04 1.503-.348.19-.13.347-.299.462-.496.155-.26.151-.44.297-.568a.867.867 0 0 1 .26-.116 6.165 6.165 0 0 0 1.392-.545c.221-.117.42-.27.589-.453l.006-.007c.417-.439.522-.956.35-1.412zm-1.54.812c-.938.51-1.562.455-2.047.762-.412.26-.168.823-.468 1.026-.368.25-1.456-.018-2.861.438-1.159.377-1.898 1.46-3.983 1.46s-2.807-1.081-3.985-1.462c-1.403-.456-2.493-.189-2.861-.439-.3-.203-.057-.765-.468-1.026-.486-.307-1.11-.252-2.048-.759-.598-.324-.259-.524-.06-.62 3.4-1.617 3.943-4.114 3.967-4.299.029-.224.062-.4-.19-.629-.243-.22-1.32-.876-1.62-1.08-.494-.34-.712-.68-.552-1.096.113-.289.386-.397.674-.397.09 0 .181.01.27.03.543.115 1.07.383 1.375.455.036.01.074.014.112.015.163 0 .22-.08.209-.264-.035-.583-.12-1.721-.026-2.785.129-1.463.608-2.187 1.178-2.829.274-.308 1.56-1.643 4.02-1.643 2.46 0 3.75 1.33 4.025 1.637.57.64 1.05 1.366 1.178 2.829.093 1.063.013 2.202-.026 2.785-.012.192.046.263.21.263a.488.488 0 0 0 .111-.015c.306-.072.833-.34 1.376-.455.089-.02.179-.03.27-.03.289 0 .56.11.673.397.16.417-.056.756-.551 1.095-.3.206-1.377.86-1.62 1.081-.252.229-.219.405-.19.63.024.187.566 2.685 3.967 4.3.2.098.54.298-.058.625z" fill="#000"/>
        </g>
    </g>
</svg>
