<svg width="48" height="48" viewBox="0 0 48 48" xmlns="http://www.w3.org/2000/svg">
    <defs>
        <linearGradient x1="50%" y1="0%" x2="50%" y2="100%" id="a">
            <stop stop-color="#E72B22" offset="0%"/>
            <stop stop-color="#DD2A22" offset="100%"/>
        </linearGradient>
    </defs>
    <g fill="none" fill-rule="evenodd">
        <circle fill="#F2F3F3" cx="24" cy="24" r="24"/>
        <path fill="#FFF" d="M18 19h13v11H18z"/>
        <path fill="#E9E9E9" d="m20.868 20.235 8.228 5.592.894-2.837z"/>
        <path d="M25.412.338s2.574.089 3.58 2.003c0 0 1.006 1.388 1.006 8.16V10.583l.002.237v.369c-.005 1.283-.06 4.059-.418 5.73-.477 2.229-1.53 2.88-1.53 2.88s-.675.65-2.165.828c-1.49.177-6.32.372-10.91.372H14.569c-1.715-.009-8.37-.066-10.826-.469C.912 20.067.514 17.442.514 17.442S.024 14.636 0 10.684v-.616c.013-1.98.147-4.212.514-6.503 0 0 .336-2.89 3.718-3.227 0 0 3.525-.325 10.332-.338h.413c7.076 0 10.435.338 10.435.338zM11.868 6.235v8.203l8.242-4.102-8.242-4.101z" fill="url(#a)" transform="translate(9 14)"/>
    </g>
</svg>
