<svg width="34" height="34" viewBox="0 0 34 34" xmlns="http://www.w3.org/2000/svg">
    <g fill="none" fill-rule="evenodd">
        <circle fill="#000" cx="17" cy="17" r="17"/>
        <path d="M22.378 17.159c0 1.66.805 2.872 2.414 3.636-.317 1.001-.857 2.029-1.622 3.083-.765 1.054-1.57 1.594-2.414 1.62-.369 0-.857-.118-1.463-.355-.607-.237-1.134-.356-1.583-.356-.448 0-.982.119-1.602.356-.62.237-1.075.355-1.365.355-.58.027-1.193-.29-1.84-.948a9.111 9.111 0 0 1-1.542-2.055 14.982 14.982 0 0 1-.89-1.937c-.37-1.107-.554-2.174-.554-3.201 0-1.66.455-2.952 1.365-3.874.91-.922 1.971-1.396 3.184-1.423.396 0 .963.132 1.701.396.739.263 1.187.395 1.345.395.106 0 .297-.046.574-.139.277-.092.56-.197.85-.316.29-.118.627-.217 1.01-.296.382-.08.731-.106 1.048-.08 1.503.132 2.624.725 3.362 1.78-1.345.79-2.004 1.91-1.978 3.359zm-2.255-6.522c-.844 1.002-1.753 1.463-2.73 1.384-.105-1.054.225-2.003.99-2.846a4.112 4.112 0 0 1 1.226-.949c.501-.263.99-.408 1.464-.434.079 1.054-.237 2.002-.95 2.845z" fill="#FFF" fill-rule="nonzero"/>
    </g>
</svg>
