<svg width="48" height="48" viewBox="0 0 48 48" xmlns="http://www.w3.org/2000/svg">
    <g fill-rule="nonzero" fill="none">
        <circle fill="#2DAAE1" cx="24" cy="24" r="24"/>
        <path d="M39.388 14.453a12.606 12.606 0 0 1-3.626.995 6.332 6.332 0 0 0 2.776-3.493 12.614 12.614 0 0 1-4.01 1.532 6.304 6.304 0 0 0-4.609-1.993 6.313 6.313 0 0 0-6.312 6.314c0 .494.055.976.162 1.439a17.927 17.927 0 0 1-13.013-6.597 6.283 6.283 0 0 0-.855 3.175 6.31 6.31 0 0 0 2.809 5.254 6.285 6.285 0 0 1-2.86-.79v.08c0 3.06 2.176 5.61 5.064 6.191a6.408 6.408 0 0 1-2.852.11 6.321 6.321 0 0 0 5.897 4.385 12.666 12.666 0 0 1-9.347 2.613 17.868 17.868 0 0 0 9.678 2.838c11.612 0 17.963-9.62 17.963-17.963 0-.274-.006-.546-.019-.817a12.864 12.864 0 0 0 3.154-3.273z" fill="#FFF"/>
    </g>
</svg>
