<svg width="34" height="34" viewBox="0 0 34 34" xmlns="http://www.w3.org/2000/svg" xmlns:xlink="http://www.w3.org/1999/xlink">
    <defs>
        <path id="a" d="M0 0h34v33.793H0z"/>
    </defs>
    <g fill="none" fill-rule="evenodd">
        <g>
            <mask id="b" fill="#fff">
                <use xlink:href="#a"/>
            </mask>
            <path d="M34 17C34 7.61 26.388-.002 16.999-.002c-9.39 0-17.001 7.611-17.001 17 0 8.486 6.217 15.52 14.345 16.794v-11.88h-4.317V17h4.317v-3.745c0-4.26 2.538-6.614 6.421-6.614 1.86 0 3.806.332 3.806.332v4.183h-2.144c-2.112 0-2.77 1.31-2.77 2.655V17h4.715l-.754 4.914h-3.962v11.88C27.783 32.517 34 25.483 34 16.998" fill="#3975EA" mask="url(#b)"/>
        </g>
        <path d="m23.617 21.914.754-4.915h-4.716V13.81c0-1.344.659-2.655 2.771-2.655h2.144V6.972s-1.946-.332-3.806-.332c-3.883 0-6.421 2.353-6.421 6.614v3.745h-4.317v4.915h4.317v11.88a17.129 17.129 0 0 0 5.312 0v-11.88h3.962" fill="#FFF"/>
    </g>
</svg>
