<svg width="48" height="48" viewBox="0 0 48 48" fill="none" xmlns="http://www.w3.org/2000/svg">
<circle cx="24" cy="24" r="24" fill="#363636"/>
<path fill-rule="evenodd" clip-rule="evenodd" d="M24.3936 19.0206C25.3694 19.0996 26.2793 18.6385 27.1233 17.6372C27.8354 16.7941 28.1519 15.8455 28.0728 14.7915C27.598 14.8179 27.1101 14.9628 26.609 15.2263C26.1079 15.4898 25.6991 15.806 25.3826 16.1748C24.6177 17.018 24.2881 17.9666 24.3936 19.0206ZM31.7915 27.7949C30.1827 27.0308 29.3783 25.8187 29.3783 24.1587C29.3519 22.7095 30.0113 21.5897 31.3563 20.7992C30.6179 19.7452 29.497 19.1523 27.9936 19.0206C27.6771 18.9942 27.3277 19.0206 26.9453 19.0996C26.5628 19.1787 26.2266 19.2775 25.9365 19.3961C25.6463 19.5146 25.3628 19.62 25.0859 19.7123C24.809 19.8045 24.6177 19.8506 24.5122 19.8506C24.354 19.8506 23.9056 19.7188 23.1672 19.4554C22.4287 19.1919 21.8616 19.0601 21.466 19.0601C20.2528 19.0865 19.1913 19.5607 18.2814 20.483C17.3715 21.4052 16.9165 22.6963 16.9165 24.3563C16.9165 25.384 17.1011 26.4511 17.4704 27.5578C17.6814 28.1375 17.9781 28.783 18.3605 29.4945C18.7429 30.2059 19.2572 30.891 19.9034 31.5497C20.5495 32.2085 21.1627 32.5247 21.743 32.4983C22.0331 32.4983 22.488 32.3797 23.1078 32.1426C23.7276 31.9055 24.2617 31.7869 24.7101 31.7869C25.1584 31.7869 25.6859 31.9055 26.2925 32.1426C26.8991 32.3797 27.387 32.4983 27.7563 32.4983C28.6002 32.472 29.4046 31.9318 30.1695 30.8778C30.9343 29.8239 31.475 28.7962 31.7915 27.7949Z" fill="white"/>
</svg>
