<svg width="48" height="48" viewBox="0 0 48 48" xmlns="http://www.w3.org/2000/svg">
    <g fill="none" fill-rule="evenodd">
        <circle fill="#BD081C" cx="24" cy="24" r="24"/>
        <path d="m15.636 37.94 2.371-9.935s.24-1.2-.373-2.271c0 0-1.365-3.413 1.333-6.306 0 0 2.21-2.502 5.037-.617 0 0 1.613 1.269.963 3.674l-1.92 6s-1.172 4.56 3.167 4.952c0 0 4.583.617 6.793-5.591 2.21-6.207-.36-10.161-.36-10.161s-3.305-5.803-10.772-4.582c-7.468 1.222-8.412 8.346-8.412 8.346s-.56 4.387 1.781 7.586l-1.12 3.827s-5.717-3.657-5.477-10.226c0 0 .24-10.951 11.442-13.591 0 0 10.146-2.555 16.151 5.595 3.36 4.56 3.12 9.525 2.4 13.206-.72 3.681-3.44 6.038-3.44 6.038s-7.353 7.8-13.75.916l-1.361 5.248s-1.599 5.686-3.762 7.157l-.994-.255s-.495-6.334.303-9.01z" fill="#FFF"/>
    </g>
</svg>
