<svg width="34" height="34" viewBox="0 0 34 34" xmlns="http://www.w3.org/2000/svg">
    <g fill="none" fill-rule="evenodd">
        <circle fill="#ECECEC" cx="17" cy="17" r="17"/>
        <g fill-rule="nonzero">
            <path d="M27.625 16.898c0-.746-.06-1.496-.187-2.23H17.214v4.227h5.855a5.086 5.086 0 0 1-2.167 3.336v2.744h3.493c2.051-1.913 3.23-4.736 3.23-8.077z" fill="#5383EC"/>
            <path d="M17.214 27.625c2.923 0 5.389-.972 7.185-2.65l-3.493-2.744c-.972.67-2.226 1.05-3.688 1.05-2.828 0-5.225-1.933-6.086-4.531H7.528v2.828c1.84 3.707 5.588 6.047 9.686 6.047z" fill="#58A65C"/>
            <path d="M11.128 18.75a6.656 6.656 0 0 1 0-4.204V11.72h-3.6a11.115 11.115 0 0 0 0 9.859l3.6-2.828z" fill="#F1BF42"/>
            <path d="M17.214 10.012a5.85 5.85 0 0 1 4.158 1.646l3.095-3.134a10.345 10.345 0 0 0-7.253-2.857c-4.098 0-7.846 2.34-9.686 6.052l3.6 2.827c.857-2.602 3.258-4.534 6.086-4.534z" fill="#D85140"/>
        </g>
    </g>
</svg>
