<svg width="117" height="70" viewBox="0 0 117 70" xmlns="http://www.w3.org/2000/svg">
    <g fill="none" fill-rule="evenodd">
        <path d="M59.27 57c1.806 0 5.735-16.244 7.941-23.192 4.574-14.405 7.668-24.35 8.23-25.938 1.251-3.533.576-6.851-3.824-6.571-4.4.28-10.64 17.592-11.238 22.894-.599 5.302-3.286-6.51-5.03-13.795-1.746-7.285-5.901-13.085-8.573-9.1-2.67 3.986-4.607 13.692 0 28.405C51.384 44.415 57.465 57 59.27 57z" fill="#DE998C"/>
        <circle fill="#AFDADB" cx="20" cy="58" r="3"/>
        <circle fill="#8DC4CB" cx="87" cy="49" r="3"/>
        <circle fill="#F8C0B8" cx="3" cy="51" r="3"/>
        <circle fill="#F8C0B8" cx="35" cy="49" r="3"/>
        <circle fill="#B0A3A0" cx="51" cy="67" r="3"/>
        <circle fill="#AFDADB" cx="114" cy="55" r="3"/>
        <circle fill="#D8D1D0" cx="97" cy="63" r="3"/>
        <circle fill="#F9CDC6" cx="73" cy="60" r="3"/>
    </g>
</svg>
