<svg width="38" height="44" viewBox="0 0 38 44" xmlns="http://www.w3.org/2000/svg" xmlns:xlink="http://www.w3.org/1999/xlink">
    <defs>
        <path id="a" d="M0 0h38v44H0z"/>
    </defs>
    <g fill="none" fill-rule="evenodd">
        <path fill="#000" fill-rule="nonzero" d="M10.813 40.702H9.345v-2.338h-.412v-.184h.412v-3.227h1.468v.193H9.587v3.034h1.226v.184H9.587v2.154h1.226z"/>
        <path d="M10.812 40.701v-.122.122zm-1.59.122v-2.338H8.81v-.427h.411v-3.227h1.713v.436H9.71v2.791h1.225v.427H9.71v1.91h1.225v.428H9.222z" fill="#000" fill-rule="nonzero"/>
        <g fill="#000" fill-rule="nonzero">
            <path d="M14.204 34.953h.242v.168a.72.72 0 0 1 .509-.223c.548 0 .741.288.741.872v4.932h-.242v-4.948c0-.448-.104-.664-.5-.664-.217 0-.387.096-.508.312v5.3h-.242v-5.749z"/>
            <path d="M15.696 40.823h-.365v-5.069c.001-.216-.029-.361-.08-.432-.05-.068-.118-.108-.296-.11-.172.003-.281.058-.386.223v5.388h-.487V34.83h.487v.045a.792.792 0 0 1 .386-.1c.293-.002.526.08.673.262.143.182.19.427.191.732v5.053h-.123z"/>
        </g>
        <path fill="#000" fill-rule="nonzero" d="M20.706 40.702h-1.468v-2.338h-.412v-.184h.412v-3.227h1.468v.193H19.48v3.034h1.225v.184H19.48v2.154h1.225z"/>
        <path d="M20.705 40.701v-.122.122zm-1.59.122v-2.338h-.412v-.427h.413v-3.227h1.712v.436h-1.226v2.791h1.226v.427h-1.226v1.91h1.226v.428h-1.713zM24.195 40.702v-2.338h-.412v-.184h.412v-3.227h1.468v.193h-1.226v3.034h1.226v.184h-1.226v2.338z" fill="#000" fill-rule="nonzero"/>
        <path fill="#000" fill-rule="nonzero" d="M24.437 40.823h-.242V40.7h.123-.123v.122h-.123v-2.337h-.412v-.428h.412v-3.227h1.713v.437l-1.226-.001v2.791h1.226v.428H24.56v2.337zM29.016 40.702h.242v-5.75h-.242z"/>
        <path d="M29.258 40.58v.121-.121zm-.241-5.749h-.124v5.992h.488V34.83h-.364zM32.52 34.953h1.566v.192h-.662v5.557h-.242v-5.557h-.661z" fill="#000" fill-rule="nonzero"/>
        <path fill="#000" fill-rule="nonzero" d="M33.424 40.823h-.365v-5.555h-.662v-.437h1.812v.437l-.662-.001v5.556z"/>
        <g fill="#000" fill-rule="nonzero">
            <path d="M4.538 40.518h.427c.476 0 .581-.128.581-.633v-.889c0-.496-.097-.632-.581-.632h-.427v2.154zm0-2.338h.427c.476 0 .581-.12.581-.625V35.77c0-.497-.097-.624-.581-.624h-.427v3.034zm.483-3.227c.646 0 .766.265.766.897v1.73c0 .392-.112.6-.42.695.308.105.42.305.42.697v.937c0 .56-.226.793-.766.793h-.726v-2.338h-.411v-.184h.411v-3.227h.726z"/>
            <path d="M4.964 38.058c.232.001.338-.035.38-.084.047-.045.081-.172.079-.419V35.77c.003-.243-.031-.37-.077-.418-.041-.049-.145-.085-.382-.084H4.66v2.79h.304zm0 2.337c.232.002.336-.035.379-.086.048-.048.082-.177.08-.424v-.889c.002-.243-.031-.373-.078-.422-.042-.051-.145-.089-.38-.088H4.66v1.91h.304zm.057.428h-.849v-2.337h-.41v-.428h.41v-3.227h.85v.193-.193c.334-.001.577.07.723.26.14.188.164.437.165.759v1.73c.01.304-.076.55-.27.697.192.148.28.39.27.695v.937c0 .294-.058.528-.214.69-.157.162-.387.224-.67.224H5.02z"/>
        </g>
        <path fill="#000" fill-rule="nonzero" d="M10.813 40.702H9.345v-2.338h-.412v-.184h.412v-3.227h1.468v.193H9.587v3.034h1.226v.184H9.587v2.154h1.226z"/>
        <path d="M10.812 40.701v-.122.122zm-1.59.122v-2.338H8.81v-.427h.411v-3.227h1.713v.436H9.71v2.791h1.225v.427H9.71v1.91h1.225v.428H9.222z" fill="#000" fill-rule="nonzero"/>
        <g fill="#000" fill-rule="nonzero">
            <path d="M14.204 34.953h.242v.168a.72.72 0 0 1 .509-.223c.548 0 .741.288.741.872v4.932h-.242v-4.948c0-.448-.104-.664-.5-.664-.217 0-.387.096-.508.312v5.3h-.242v-5.749z"/>
            <path d="M15.696 40.823h-.365v-5.069c.001-.216-.029-.361-.08-.432-.05-.068-.118-.108-.296-.11-.172.003-.281.058-.386.223v5.388h-.487V34.83h.487v.045a.792.792 0 0 1 .386-.1c.293-.002.526.08.673.262.143.182.19.427.191.732v5.053h-.123z"/>
        </g>
        <path fill="#000" fill-rule="nonzero" d="M20.706 40.702h-1.468v-2.338h-.412v-.184h.412v-3.227h1.468v.193H19.48v3.034h1.225v.184H19.48v2.154h1.225z"/>
        <path d="M20.705 40.701v-.122.122zm-1.59.122v-2.338h-.412v-.427h.413v-3.227h1.712v.436h-1.226v2.791h1.226v.427h-1.226v1.91h1.226v.428h-1.713zM24.195 40.702v-2.338h-.412v-.184h.412v-3.227h1.468v.193h-1.226v3.034h1.226v.184h-1.226v2.338z" fill="#000" fill-rule="nonzero"/>
        <path fill="#000" fill-rule="nonzero" d="M24.437 40.823h-.242V40.7h.123-.123v.122h-.123v-2.337h-.412v-.428h.412v-3.227h1.713v.437l-1.226-.001v2.791h1.226v.428H24.56v2.337zM29.016 40.702h.242v-5.75h-.242z"/>
        <path d="M29.258 40.58v.121-.121zm-.241-5.749h-.124v5.992h.488V34.83h-.364zM32.52 34.953h1.566v.192h-.662v5.557h-.242v-5.557h-.661z" fill="#000" fill-rule="nonzero"/>
        <path fill="#000" fill-rule="nonzero" d="M33.424 40.823h-.365v-5.555h-.662v-.437h1.812v.437l-.662-.001v5.556z"/>
        <g fill="#000" fill-rule="nonzero">
            <path d="M4.538 40.518h.427c.476 0 .581-.128.581-.633v-.889c0-.496-.097-.632-.581-.632h-.427v2.154zm0-2.338h.427c.476 0 .581-.12.581-.625V35.77c0-.497-.097-.624-.581-.624h-.427v3.034zm.483-3.227c.646 0 .766.265.766.897v1.73c0 .392-.112.6-.42.695.308.105.42.305.42.697v.937c0 .56-.226.793-.766.793h-.726v-2.338h-.411v-.184h.411v-3.227h.726z"/>
            <path d="M4.964 38.027c.231.001.328-.035.357-.073.038-.035.073-.153.07-.398V35.77c.005-.242-.03-.362-.068-.397-.03-.038-.124-.077-.359-.075h-.273v2.729h.273zm0 2.337c.23.003.324-.036.355-.075.04-.037.075-.16.073-.405v-.888c.002-.242-.031-.365-.07-.402-.032-.039-.124-.078-.358-.077l-.273-.001v1.848h.273zm.057.49h-.88v-2.337H3.73v-.49H4.142V34.8h.88v.193-.193c.338-.001.593.07.748.272.147.2.17.454.172.778v1.73c.01.291-.073.54-.254.697.181.157.264.402.254.695v.937c-.001.297-.06.54-.224.712-.165.17-.405.233-.693.233h-.004z"/>
        </g>
        <path fill="#000" fill-rule="nonzero" d="M10.813 40.702H9.345v-2.338h-.412v-.184h.412v-3.227h1.468v.193H9.587v3.034h1.226v.184H9.587v2.154h1.226z"/>
        <path d="M10.813 40.701v-.152.152zm-1.622.153v-2.338h-.412v-.488H9.191V34.8h1.775v.498H9.74v2.73h1.226v.488H9.74v1.849h1.226v.489H9.19z" fill="#000" fill-rule="nonzero"/>
        <g fill="#000" fill-rule="nonzero">
            <path d="M14.204 34.953h.242v.168a.72.72 0 0 1 .509-.223c.548 0 .741.288.741.872v4.932h-.242v-4.948c0-.448-.104-.664-.5-.664-.217 0-.387.096-.508.312v5.3h-.242v-5.749z"/>
            <path d="M15.3 40.854v-5.1c.002-.214-.03-.353-.074-.414-.043-.06-.097-.095-.271-.098-.162.005-.256.05-.356.202v5.41h-.548V34.8h.548v.026a.815.815 0 0 1 .356-.081c.297-.003.543.082.696.275.152.19.198.443.199.75v5.084h-.55z"/>
        </g>
        <path fill="#000" fill-rule="nonzero" d="M20.706 40.702h-1.468v-2.338h-.412v-.184h.412v-3.227h1.468v.193H19.48v3.034h1.225v.184H19.48v2.154h1.225z"/>
        <path d="M20.706 40.701v-.152.152zm-1.622.153v-2.338h-.412v-.488H19.084V34.8h1.775v.498h-1.226v2.73h1.226v.488h-1.226v1.849h1.226v.489h-1.775zM24.195 40.702v-2.338h-.412v-.184h.412v-3.227h1.468v.193h-1.226v3.034h1.226v.184h-1.226v2.338z" fill="#000" fill-rule="nonzero"/>
        <path fill="#000" fill-rule="nonzero" d="M24.437 40.854h-.242v-.153h.153-.153v.153h-.154v-2.337h-.413v-.489H24.041V34.8h1.774v.498H24.59v2.73h1.225v.489H24.59v2.337zM29.016 40.702h.242v-5.75h-.242z"/>
        <path d="M29.258 40.55v.152-.153zm-.395-5.75v6.054h.549v-6.053h-.55zM32.52 34.953h1.566v.192h-.662v5.557h-.242v-5.557h-.661z" fill="#000" fill-rule="nonzero"/>
        <path fill="#000" fill-rule="nonzero" d="M33.028 40.854v-5.556h-.662V34.8h1.874v.498h-.663v5.556z"/>
        <path d="M34.35 43.619c1.803 0 3.267-1.452 3.267-3.243V3.623c0-1.79-1.464-3.242-3.268-3.242H3.652C1.847.381.385 1.833.385 3.623v36.753c0 1.79 1.462 3.243 3.267 3.243h30.697z" fill="#FFF" fill-rule="nonzero"/>
        <g>
            <mask id="b" fill="#fff">
                <use xlink:href="#a"/>
            </mask>
            <path d="M3.652 44C1.634 44 0 42.378 0 40.376V3.623C0 1.622 1.634 0 3.652 0H34.35C36.365 0 38 1.622 38 3.623v36.753C38 42.378 36.365 44 34.35 44v-.763a2.876 2.876 0 0 0 2.882-2.861V3.623A2.877 2.877 0 0 0 34.35.762H3.652A2.876 2.876 0 0 0 .768 3.623v36.753a2.875 2.875 0 0 0 2.884 2.86H34.35V44H3.652z" fill="#CD132C" fill-rule="nonzero" mask="url(#b)"/>
        </g>
        <path d="M18.1 6.265c-.083-.161-.006-.344.131-.46 0 0 .342-.217.727.069.328.247.565.677.582 1.089-.499-.198-.982-.45-1.44-.698M33.712 7.34c-.003-.217-.144-.456-.228-.638-.2-.317-.483-.656-.831-.811l-.61.833c.268.145.5.323.622.631l.078.12-5.443.022-.079-.264c-.205-.523-.49-1.102-1.001-1.403-.287.153-.525.374-.798.607 0 0 .808.523.722 1.038l-5.56.022c-.159-.662-.239-1.359-.57-1.949-.225-.363-.621-.597-1.004-.716-.231.003-.31-.04-.623.01-.597.088-1.215.419-1.354 1.027l-.072.49a.74.74 0 0 0 .374.466c.362.255.72.416 1.094.67l-3.597-.018c-.122-.233-.143-.314-.192-.484-.114-.273-.204-.489-.425-.669-.152-.146-.305-.327-.479-.37-.202.29-.406.59-.55.878.148-.002.205.07.313.178.083.137.2.284.158.456-.148.105-.333.13-.494.19-.102.105-.264.05-.378.132-.161-.009-.31.085-.449.087-1.747.324-3.596.348-5.334.208-.61-.06-1.675-.306-2.342-.914a.904.904 0 0 1-.233-.843c.023-.034-.017-.11.041-.123l.059-.217-.278.035a.931.931 0 0 0-.668.708c-.098.378-.012.8.258 1.025 0 0 .848 1.51 6.477 1.225 0 0 1.42-.057 2.67-.4l.802-.15c.283.006.57.053.808.025l18.987.009c.237-.347.24-.713.13-1.123" fill="#000" fill-rule="nonzero"/>
        <path fill="#000" fill-rule="nonzero" d="m9.651 4.93 1.378.54-.656.64-1.462-.573zM18.153 3.1l1.377.54-.656.639-1.461-.572zM24.608 3.587l1.377.54-.656.638-1.461-.572zM31.12 8.734l1.205.455-.656.638-1.288-.487zM7.289 5.026l1.377.54-.656.639-1.461-.573z"/>
        <path fill="#CD132C" fill-rule="nonzero" d="m7.97 22.947 3.596 3.57v-7.138z"/>
        <g fill="#CD132C" fill-rule="nonzero">
            <path d="M16.234 22.114V16.51l-3.89 2.096 6.098-6.051 4.72 4.685s-4.773 1.648-6.925 4.997l-.003-.123z"/>
            <path d="M19.288 26.908c1.322-.716 2.626-1.823 3.002-3.707.577-2.893.047-4.752-3.002-3.078-1.444.793-2.886 2.53-3.001 4.68-.103 1.917.194 3.626 3.001 2.105"/>
            <path d="M26.855 20.978c-.494.965-1.382 2.349-3.735 4.225-5.111 4.077-7.623 3.706-8.111 3.49l-.018.019-.545.661 3.995 3.965 10.472-10.391-2.033-2.018-.025.049z"/>
        </g>
        <path fill="#000" fill-rule="nonzero" d="M23.352 10.418v-.543l-2.795 1.115v.544zM17.185 10.361v-.544l-2.795 1.116v.543z"/>
        <g fill="#000" fill-rule="nonzero">
            <path d="M4.538 40.518h.427c.476 0 .581-.128.581-.633v-.889c0-.496-.097-.632-.581-.632h-.427v2.154zm0-2.338h.427c.476 0 .581-.12.581-.625V35.77c0-.497-.097-.624-.581-.624h-.427v3.034zm.483-3.227c.646 0 .766.265.766.897v1.73c0 .392-.112.6-.42.695.308.105.42.305.42.697v.937c0 .56-.226.793-.766.793h-.726v-2.338h-.411v-.184h.411v-3.227h.726z"/>
            <path d="M4.964 38.027c.231.001.328-.035.357-.073.038-.035.073-.153.07-.398V35.77c.005-.242-.03-.362-.068-.397-.03-.038-.124-.077-.359-.075h-.273v2.729h.273zm0 2.337c.23.003.324-.036.355-.075.04-.037.075-.16.073-.405v-.888c.002-.242-.031-.365-.07-.402-.032-.039-.124-.078-.358-.077l-.273-.001v1.848h.273zm.057.49h-.88v-2.337H3.73v-.49H4.142V34.8h.88v.193-.193c.338-.001.593.07.748.272.147.2.17.454.172.778v1.73c.01.291-.073.54-.254.697.181.157.264.402.254.695v.937c-.001.297-.06.54-.224.712-.165.17-.405.233-.693.233h-.004z"/>
        </g>
        <path fill="#000" fill-rule="nonzero" d="M10.813 40.702H9.345v-2.338h-.412v-.184h.412v-3.227h1.468v.193H9.587v3.034h1.226v.184H9.587v2.154h1.226z"/>
        <path d="M10.813 40.701v-.152.152zm-1.622.153v-2.338h-.412v-.488H9.191V34.8h1.775v.498H9.74v2.73h1.226v.488H9.74v1.849h1.226v.489H9.19z" fill="#000" fill-rule="nonzero"/>
        <g fill="#000" fill-rule="nonzero">
            <path d="M14.204 34.953h.242v.168a.72.72 0 0 1 .509-.223c.548 0 .741.288.741.872v4.932h-.242v-4.948c0-.448-.104-.664-.5-.664-.217 0-.387.096-.508.312v5.3h-.242v-5.749z"/>
            <path d="M15.3 40.854v-5.1c.002-.214-.03-.353-.074-.414-.043-.06-.097-.095-.271-.098-.162.005-.256.05-.356.202v5.41h-.548V34.8h.548v.026a.815.815 0 0 1 .356-.081c.297-.003.543.082.696.275.152.19.198.443.199.75v5.084h-.55z"/>
        </g>
        <path fill="#000" fill-rule="nonzero" d="M20.706 40.702h-1.468v-2.338h-.412v-.184h.412v-3.227h1.468v.193H19.48v3.034h1.225v.184H19.48v2.154h1.225z"/>
        <path d="M20.706 40.701v-.152.152zm-1.622.153v-2.338h-.412v-.488H19.084V34.8h1.775v.498h-1.226v2.73h1.226v.488h-1.226v1.849h1.226v.489h-1.775zM24.195 40.702v-2.338h-.412v-.184h.412v-3.227h1.468v.193h-1.226v3.034h1.226v.184h-1.226v2.338z" fill="#000" fill-rule="nonzero"/>
        <path fill="#000" fill-rule="nonzero" d="M24.437 40.854h-.242v-.153h.153-.153v.153h-.154v-2.337h-.413v-.489H24.041V34.8h1.774v.498H24.59v2.73h1.225v.489H24.59v2.337zM29.016 40.702h.242v-5.75h-.242z"/>
        <path d="M29.258 40.55v.152-.153zm-.395-5.75v6.054h.549v-6.053h-.55zM32.52 34.953h1.566v.192h-.662v5.557h-.242v-5.557h-.661z" fill="#000" fill-rule="nonzero"/>
        <path fill="#000" fill-rule="nonzero" d="M33.028 40.854v-5.556h-.662V34.8h1.874v.498h-.663v5.556z"/>
        <g fill="#CD132C" fill-rule="nonzero">
            <path d="M7.627 38.83c.167 0 .3-.187.3-.42 0-.231-.133-.42-.3-.42-.166 0-.3.189-.3.42 0 .233.134.42.3.42M12.757 38.83c.165 0 .301-.187.301-.42 0-.231-.136-.42-.301-.42-.167 0-.301.189-.301.42 0 .233.134.42.3.42M17.713 38.83c.166 0 .301-.187.301-.42 0-.231-.135-.42-.3-.42-.167 0-.302.189-.302.42 0 .233.135.42.301.42M22.362 38.83c.167 0 .301-.187.301-.42 0-.231-.134-.42-.3-.42-.166 0-.3.189-.3.42 0 .233.134.42.3.42M27.32 38.83c.164 0 .3-.187.3-.42 0-.231-.136-.42-.3-.42-.167 0-.302.189-.302.42 0 .233.135.42.301.42M31.565 38.67c.166 0 .3-.189.3-.42 0-.233-.134-.42-.3-.42-.166 0-.301.187-.301.42 0 .231.135.42.3.42"/>
        </g>
        <path fill="#000" fill-rule="nonzero" d="M32.545 10.561v-.543l-2.795 1.115v.543z"/>
    </g>
</svg>
