<svg width="48" height="34" viewBox="0 0 48 34" xmlns="http://www.w3.org/2000/svg" xmlns:xlink="http://www.w3.org/1999/xlink">
    <defs>
        <path id="a" d="M0 0h48v34H0z"/>
        <mask id="b" maskContentUnits="userSpaceOnUse" maskUnits="objectBoundingBox" x="0" y="0" width="48" height="34" fill="#fff">
            <use xlink:href="#a"/>
        </mask>
    </defs>
    <g fill="none" fill-rule="evenodd">
        <path d="M0 0h48v34H0V0z"/>
        <g>
            <path d="M0 0h48v34H0V0z"/>
            <use stroke="#D0D3D6" mask="url(#b)" stroke-width="2" fill="#FFF" stroke-dasharray="0,0" xlink:href="#a"/>
        </g>
        <path d="m35.922 13.757 1.914 6.467h.034l1.913-6.467h1.652l-2.853 8.37c-.652 1.917-1.397 2.549-2.982 2.549-.12 0-.524-.014-.618-.042V23.32c.101.014.35.028.477.028.719 0 1.121-.316 1.37-1.138l.148-.484-2.753-7.97h1.698zm-22.228-.97.23.001.067.006c.411.038 1.38.193 2.015 1.174-.054.042-1.242.758-1.229 2.26a2.617 2.617 0 0 0 1.401 2.35l.084.043.033.016c-.014.042-.235.85-.78 1.678-.476.73-.966 1.447-1.745 1.46-.752.015-1-.47-1.867-.47-.86 0-1.142.457-1.853.485-.752.028-1.323-.772-1.8-1.503-.974-1.474-1.719-4.156-.712-5.968.49-.906 1.384-1.474 2.344-1.488.738-.015 1.417.512 1.867.512.443 0 1.242-.61 2.175-.555zm16.83.865c1.86 0 3.068 1.018 3.068 2.598v5.449h-1.504v-1.313h-.033c-.43.856-1.377 1.397-2.398 1.397-1.51 0-2.565-.941-2.565-2.36 0-1.404 1.021-2.211 2.908-2.33l2.028-.127v-.604c0-.891-.558-1.376-1.551-1.376-.82 0-1.417.442-1.538 1.116h-1.464c.047-1.418 1.323-2.45 3.049-2.45zm-7.28-2.9c2.029 0 3.446 1.46 3.446 3.595 0 2.135-1.444 3.61-3.499 3.61h-2.25v3.742h-1.624V10.752zm8.783 7.359-1.806.12c-1.014.062-1.545.463-1.545 1.15 0 .668.551 1.103 1.417 1.103 1.102 0 1.934-.73 1.934-1.755v-.618zm-9.212-5.926H20.94v4.346h1.867c1.417 0 2.223-.794 2.223-2.177s-.806-2.17-2.216-2.17zM13.93 9.917c.061.638-.15 1.265-.486 1.758l-.105.144c-.403.499-1.047.892-1.692.836-.08-.674.235-1.39.604-1.833.403-.512 1.108-.877 1.68-.905z" fill="#000"/>
    </g>
</svg>
