<svg width="48" height="34" viewBox="0 0 48 34" xmlns="http://www.w3.org/2000/svg" xmlns:xlink="http://www.w3.org/1999/xlink">
    <defs>
        <path id="a" d="M0 0h48v34H0z"/>
        <mask id="b" maskContentUnits="userSpaceOnUse" maskUnits="objectBoundingBox" x="0" y="0" width="48" height="34" fill="#fff">
            <use xlink:href="#a"/>
        </mask>
    </defs>
    <g fill="none" fill-rule="evenodd">
        <path d="M0 0h48v34H0V0z"/>
        <g>
            <path d="M0 0h48v34H0V0z"/>
            <use stroke="#D0D3D6" mask="url(#b)" stroke-width="2" fill="#FFF" stroke-dasharray="0,0" xlink:href="#a"/>
        </g>
        <path d="m20.944 24.082-.694-.017h-3.315l2.304-15.149a.202.202 0 0 1 .064-.119.184.184 0 0 1 .123-.047h5.589c1.855 0 3.136.4 3.804 1.191.314.371.514.759.61 1.185.101.447.103.982.004 1.634l-.007.048v.417l.314.185c.263.145.473.311.634.501.268.317.442.72.515 1.198.076.491.05 1.076-.073 1.738-.143.761-.375 1.425-.687 1.967-.287.5-.653.915-1.087 1.236a4.338 4.338 0 0 1-1.465.686 7.06 7.06 0 0 1-1.83.219h-.435c-.311 0-.613.116-.85.324a1.379 1.379 0 0 0-.444.821l-.033.185-.55 3.618-.025.133c-.007.042-.018.063-.035.077a.09.09 0 0 1-.057.022h-2.686l.312-2.053z" fill="#28356A"/>
        <path d="M29.979 13.195c-.737 3.926-3.259 5.282-6.48 5.282h-1.64a.806.806 0 0 0-.786.699l-1.078 7.088a.43.43 0 0 0 .414.503h2.909c.344 0 .637-.26.691-.612l.029-.153.547-3.604.035-.198a.708.708 0 0 1 .692-.613h.434c2.818 0 5.024-1.187 5.67-4.62.268-1.435.129-2.632-.584-3.475a2.793 2.793 0 0 0-.796-.636c-.016.11-.036.223-.057.34z" fill="#298FC2"/>
        <path d="M28.917 12.444a6.543 6.543 0 0 0-.369-.072 8.797 8.797 0 0 0-1.446-.11h-4.38a.674.674 0 0 0-.302.071c-.202.101-.353.3-.389.542l-.932 6.123-.027.178a.806.806 0 0 1 .788-.7h1.64c3.22 0 5.742-1.356 6.479-5.28.022-.117.04-.23.057-.34a3.845 3.845 0 0 0-.771-.32 5.617 5.617 0 0 0-.348-.092z" fill="#22284F"/>
        <path d="M22.42 12.334a.674.674 0 0 1 .302-.07h4.38c.52 0 1.004.034 1.446.108a5.617 5.617 0 0 1 .882.218c.218.075.42.164.607.266.22-1.45-.002-2.438-.758-3.333-.834-.984-2.338-1.406-4.263-1.406h-5.59a.808.808 0 0 0-.79.7L16.31 24.124a.492.492 0 0 0 .473.576h3.451l1.798-11.823a.72.72 0 0 1 .389-.542z" fill="#28356A"/>
    </g>
</svg>
