<svg width="48" height="34" viewBox="0 0 48 34" xmlns="http://www.w3.org/2000/svg" xmlns:xlink="http://www.w3.org/1999/xlink">
    <defs>
        <path id="a" d="M0 0h48v34H0z"/>
        <mask id="b" maskContentUnits="userSpaceOnUse" maskUnits="objectBoundingBox" x="0" y="0" width="48" height="34" fill="#fff">
            <use xlink:href="#a"/>
        </mask>
    </defs>
    <g fill="none" fill-rule="evenodd">
        <path d="M0 0h48v34H0V0z"/>
        <g>
            <path d="M0 0h48v34H0V0z"/>
            <use stroke="#D0D3D6" mask="url(#b)" stroke-width="2" fill="#FFF" stroke-dasharray="0,0" xlink:href="#a"/>
        </g>
        <path d="M30.462 7.126c5.287 0 9.572 4.25 9.572 9.492 0 5.242-4.285 9.491-9.572 9.491a9.583 9.583 0 0 1-6.209-2.267 9.588 9.588 0 0 1-6.21 2.267c-5.287 0-9.572-4.25-9.572-9.491 0-5.243 4.285-9.492 9.572-9.492 2.37 0 4.538.853 6.21 2.268a9.58 9.58 0 0 1 6.209-2.268z" fill="#ED0006"/>
        <path d="M30.462 7.126c5.287 0 9.573 4.25 9.573 9.492 0 5.242-4.286 9.491-9.573 9.491a9.583 9.583 0 0 1-6.21-2.267 9.438 9.438 0 0 0 0-14.448 9.583 9.583 0 0 1 6.21-2.268z" fill="#F9A000"/>
        <path d="M24.253 9.394a9.438 9.438 0 0 1 0 14.448 9.436 9.436 0 0 1-.002-14.448z" fill="#FF5E00"/>
    </g>
</svg>
