<svg width="19" height="19" viewBox="0 0 19 19" xmlns="http://www.w3.org/2000/svg" xmlns:xlink="http://www.w3.org/1999/xlink">
    <defs>
        <path d="M15.275 13.818c2.662-3.408 2.382-8.263-.678-11.32A8.499 8.499 0 0 0 8.548 0 8.499 8.499 0 0 0 2.5 2.498 8.488 8.488 0 0 0 0 8.543c0 2.287.888 4.435 2.5 6.045a8.499 8.499 0 0 0 6.048 2.498c1.892 0 3.76-.63 5.255-1.82l3.387 3.43c.21.21.467.304.747.304.28 0 .537-.117.748-.303.42-.397.42-1.074 0-1.494l-3.41-3.385zm-2.172-.723a6.437 6.437 0 0 1-4.555 1.89 6.437 6.437 0 0 1-4.554-1.89 6.43 6.43 0 0 1-1.892-4.552 6.39 6.39 0 0 1 1.892-4.552 6.437 6.437 0 0 1 4.554-1.89c1.729 0 3.34.677 4.555 1.89a6.39 6.39 0 0 1 1.891 4.552 6.39 6.39 0 0 1-1.891 4.552z" id="3hq1qmphra"/>
    </defs>
    <g fill="#45515D" fill-rule="evenodd">
        <use xlink:href="#3hq1qmphra"/>
        <use xlink:href="#3hq1qmphra"/>
    </g>
</svg>
