<svg width="16" height="19" viewBox="0 0 16 19" fill="none" xmlns="http://www.w3.org/2000/svg">
<path fill-rule="evenodd" clip-rule="evenodd" d="M8.39356 5.02059C9.36941 5.09964 10.2793 4.63852 11.1233 3.63724C11.8354 2.79406 12.1519 1.84548 12.0728 0.791504C11.598 0.817853 11.1101 0.962775 10.609 1.22627C10.1079 1.48976 9.69908 1.80596 9.38259 2.17485C8.61774 3.01803 8.28807 3.96661 8.39356 5.02059ZM15.7915 13.7949C14.1827 13.0308 13.3783 11.8187 13.3783 10.1587C13.3519 8.70951 14.0113 7.58966 15.3563 6.79917C14.6179 5.7452 13.497 5.15233 11.9936 5.02059C11.6771 4.99424 11.3277 5.02059 10.9453 5.09963C10.5628 5.17868 10.2266 5.27749 9.93645 5.39607C9.64633 5.51464 9.36281 5.62004 9.08589 5.71226C8.80896 5.80448 8.61774 5.85059 8.51225 5.85059C8.354 5.85059 7.90564 5.71885 7.16717 5.45535C6.42869 5.19186 5.86165 5.06011 5.46604 5.06011C4.25283 5.08646 3.19127 5.56075 2.28136 6.48298C1.37146 7.40521 0.916504 8.69633 0.916504 10.3563C0.916504 11.384 1.10112 12.4511 1.47036 13.5578C1.68135 14.1375 1.97806 14.783 2.36049 15.4945C2.74291 16.2059 3.25721 16.891 3.90337 17.5497C4.54954 18.2085 5.16274 18.5247 5.74297 18.4983C6.03308 18.4983 6.48804 18.3797 7.10783 18.1426C7.72762 17.9055 8.26169 17.7869 8.71005 17.7869C9.15841 17.7869 9.6859 17.9055 10.2925 18.1426C10.8991 18.3797 11.387 18.4983 11.7563 18.4983C12.6002 18.472 13.4046 17.9318 14.1695 16.8778C14.9343 15.8239 15.475 14.7962 15.7915 13.7949Z" fill="white"/>
</svg>
